REM DIRINDEX 1\2\3,1\2\4,1\2\5,1\2\6
REM DIRNAME folder01,folder02,folder03,folder04,folder05,folder06
TITLE ""
FILE "036 036.mp3" MP3
  TRACK 01 AUDIO
    TITLE "0:"
    INDEX 01 00:00:00
  TRACK 02 AUDIO
    TITLE "3:cjc157_1366"
    INDEX 01 00:00:13
  TRACK 03 AUDIO
    TITLE "0:"
    INDEX 01 00:02:26
  TRACK 04 AUDIO
    TITLE "4:cjc157_1367"
    INDEX 01 00:02:71
  TRACK 05 AUDIO
    TITLE "0:"
    INDEX 01 00:04:23
  TRACK 06 AUDIO
    TITLE "5:cjc157_1368"
    INDEX 01 00:04:72
  TRACK 07 AUDIO
    TITLE "0:"
    INDEX 01 00:07:11
  TRACK 08 AUDIO
    TITLE "5:cjc157_1369"
    INDEX 01 00:07:54
  TRACK 09 AUDIO
    TITLE "0:"
    INDEX 01 00:10:61
  TRACK 10 AUDIO
    TITLE "5:cjc157_1370"
    INDEX 01 00:11:25
  TRACK 11 AUDIO
    TITLE "0:"
    INDEX 01 00:12:60
  TRACK 12 AUDIO
    TITLE "3:cjc157_1371"
    INDEX 01 00:13:24
  TRACK 13 AUDIO
    TITLE "0:"
    INDEX 01 00:14:68
  TRACK 14 AUDIO
    TITLE "4:cjc157_1372"
    INDEX 01 00:15:40
  TRACK 15 AUDIO
    TITLE "0:"
    INDEX 01 00:16:55
  TRACK 16 AUDIO
    TITLE "5:cjc157_1373"
    INDEX 01 00:17:25
  TRACK 17 AUDIO
    TITLE "0:"
    INDEX 01 00:20:12
  TRACK 18 AUDIO
    TITLE "5:cjc157_1374"
    INDEX 01 00:20:69
  TRACK 19 AUDIO
    TITLE "0:"
    INDEX 01 00:22:48
  TRACK 20 AUDIO
    TITLE "3:cjc157_1375"
    INDEX 01 00:23:18
  TRACK 21 AUDIO
    TITLE "0:"
    INDEX 01 00:24:69
  TRACK 22 AUDIO
    TITLE "4:cjc157_1376"
    INDEX 01 00:25:41
  TRACK 23 AUDIO
    TITLE "0:"
    INDEX 01 00:26:66
  TRACK 24 AUDIO
    TITLE "5:cjc157_1377"
    INDEX 01 00:27:34
  TRACK 25 AUDIO
    TITLE "0:"
    INDEX 01 00:30:24
  TRACK 26 AUDIO
    TITLE "5:cjc157_1378"
    INDEX 01 00:30:73
  TRACK 27 AUDIO
    TITLE "0:"
    INDEX 01 00:33:64
  TRACK 28 AUDIO
    TITLE "5:cjc157_1379"
    INDEX 01 00:34:36
  TRACK 29 AUDIO
    TITLE "0:"
    INDEX 01 00:36:07
  TRACK 30 AUDIO
    TITLE "3:cjc157_1380"
    INDEX 01 00:36:52
  TRACK 31 AUDIO
    TITLE "0:"
    INDEX 01 00:38:00
  TRACK 32 AUDIO
    TITLE "4:cjc157_1381"
    INDEX 01 00:38:47
  TRACK 33 AUDIO
    TITLE "0:"
    INDEX 01 00:39:58
  TRACK 34 AUDIO
    TITLE "5:cjc157_1382"
    INDEX 01 00:40:28
  TRACK 35 AUDIO
    TITLE "0:"
    INDEX 01 00:42:25
  TRACK 36 AUDIO
    TITLE "5:cjc157_1383"
    INDEX 01 00:42:74
  TRACK 37 AUDIO
    TITLE "0:"
    INDEX 01 00:44:61
  TRACK 38 AUDIO
    TITLE "3:cjc157_1384"
    INDEX 01 00:45:33
  TRACK 39 AUDIO
    TITLE "0:"
    INDEX 01 00:46:70
  TRACK 40 AUDIO
    TITLE "4:cjc157_1385"
    INDEX 01 00:47:42
  TRACK 41 AUDIO
    TITLE "0:"
    INDEX 01 00:50:70
  TRACK 42 AUDIO
    TITLE "5:cjc157_1386"
    INDEX 01 00:51:36
  TRACK 43 AUDIO
    TITLE "0:"
    INDEX 01 00:54:13
  TRACK 44 AUDIO
    TITLE "5:cjc157_1387"
    INDEX 01 00:54:58
  TRACK 45 AUDIO
    TITLE "0:"
    INDEX 01 00:56:74
  TRACK 46 AUDIO
    TITLE "3:cjc157_1388"
    INDEX 01 00:57:48
  TRACK 47 AUDIO
    TITLE "0:"
    INDEX 01 00:59:24
  TRACK 48 AUDIO
    TITLE "4:cjc157_1389"
    INDEX 01 00:59:69
  TRACK 49 AUDIO
    TITLE "0:"
    INDEX 01 01:04:58
  TRACK 50 AUDIO
    TITLE "5:cjc157_1390"
    INDEX 01 01:05:26
  TRACK 51 AUDIO
    TITLE "0:"
    INDEX 01 01:08:19
  TRACK 52 AUDIO
    TITLE "5:cjc157_1391"
    INDEX 01 01:08:64
  TRACK 53 AUDIO
    TITLE "0:"
    INDEX 01 01:12:34
  TRACK 54 AUDIO
    TITLE "5:cjc157_1392"
    INDEX 01 01:13:10
  TRACK 55 AUDIO
    TITLE "0:"
    INDEX 01 01:15:54
  TRACK 56 AUDIO
    TITLE "3:cjc157_1393"
    INDEX 01 01:16:24
  TRACK 57 AUDIO
    TITLE "0:"
    INDEX 01 01:17:61
  TRACK 58 AUDIO
    TITLE "4:cjc157_1394"
    INDEX 01 01:18:31
  TRACK 59 AUDIO
    TITLE "0:"
    INDEX 01 01:19:48
  TRACK 60 AUDIO
    TITLE "5:cjc157_1395"
    INDEX 01 01:20:20
  TRACK 61 AUDIO
    TITLE "0:"
    INDEX 01 01:22:39
  TRACK 62 AUDIO
    TITLE "5:cjc157_1396"
    INDEX 01 01:23:09
  TRACK 63 AUDIO
    TITLE "0:"
    INDEX 01 01:25:08
  TRACK 64 AUDIO
    TITLE "3:cjc157_1397"
    INDEX 01 01:25:51
  TRACK 65 AUDIO
    TITLE "0:"
    INDEX 01 01:27:04
  TRACK 66 AUDIO
    TITLE "4:cjc157_1398"
    INDEX 01 01:27:48
  TRACK 67 AUDIO
    TITLE "0:"
    INDEX 01 01:28:61
  TRACK 68 AUDIO
    TITLE "5:cjc157_1399"
    INDEX 01 01:29:31
  TRACK 69 AUDIO
    TITLE "0:"
    INDEX 01 01:31:57
  TRACK 70 AUDIO
    TITLE "5:cjc157_1400"
    INDEX 01 01:32:29
  TRACK 71 AUDIO
    TITLE "0:"
    INDEX 01 01:34:55
  TRACK 72 AUDIO
    TITLE "3:cjc157_1401"
    INDEX 01 01:35:29
  TRACK 73 AUDIO
    TITLE "0:"
    INDEX 01 01:36:68
  TRACK 74 AUDIO
    TITLE "4:cjc157_1402"
    INDEX 01 01:37:38
  TRACK 75 AUDIO
    TITLE "0:"
    INDEX 01 01:38:59
  TRACK 76 AUDIO
    TITLE "5:cjc157_1403"
    INDEX 01 01:39:27
  TRACK 77 AUDIO
    TITLE "0:"
    INDEX 01 01:41:40
  TRACK 78 AUDIO
    TITLE "5:cjc157_1404"
    INDEX 01 01:42:10
  TRACK 79 AUDIO
    TITLE "0:"
    INDEX 01 01:43:74
  TRACK 80 AUDIO
    TITLE "3:cjc157_1405"
    INDEX 01 01:44:44
  TRACK 81 AUDIO
    TITLE "0:"
    INDEX 01 01:46:04
  TRACK 82 AUDIO
    TITLE "4:cjc157_1406"
    INDEX 01 01:46:49
  TRACK 83 AUDIO
    TITLE "0:"
    INDEX 01 01:47:60
  TRACK 84 AUDIO
    TITLE "5:cjc157_1407"
    INDEX 01 01:48:28
  TRACK 85 AUDIO
    TITLE "0:"
    INDEX 01 01:52:51
